<svg xmlns="http://www.w3.org/2000/svg" height="512" viewBox="0 0 64 64" width="512" class=""><g transform="matrix(0.989505 0 0 0.989505 0.335836 0.335836)"><g id="Credit_card" data-name="Credit card"><path d="m62 19v1h-60v-1a4 4 0 0 1 4-4h52a4 4 0 0 1 4 4z" fill="#57a4ff" data-original="#57A4FF" class=""></path><path d="m2 27v18a4 4 0 0 0 4 4h52a4 4 0 0 0 4-4v-18zm56 8h-22v-4h22z" fill="#57a4ff" data-original="#57A4FF" class=""></path><g fill="#004fac"><path d="m58 14h-52a5.006 5.006 0 0 0 -5 5v26a5.006 5.006 0 0 0 5 5h52a5.006 5.006 0 0 0 5-5v-26a5.006 5.006 0 0 0 -5-5zm-52 2h52a3 3 0 0 1 3 3h-58a3 3 0 0 1 3-3zm-3 5h58v5h-58zm55 27h-52a3 3 0 0 1 -3-3v-17h58v17a3 3 0 0 1 -3 3z" data-original="#004FAC" class="active-path" style="fill:#004FAC"></path><path d="m58 30h-22a1 1 0 0 0 -1 1v4a1 1 0 0 0 1 1h22a1 1 0 0 0 1-1v-4a1 1 0 0 0 -1-1zm-1 4h-20v-2h20z" data-original="#004FAC" class="active-path" style="fill:#004FAC"></path><path d="m58 37h-9a1 1 0 0 0 0 2h9a1 1 0 0 0 0-2z" data-original="#004FAC" class="active-path" style="fill:#004FAC"></path><path d="m58 40h-7a1 1 0 0 0 0 2h7a1 1 0 0 0 0-2z" data-original="#004FAC" class="active-path" style="fill:#004FAC"></path><path d="m58 43h-3a1 1 0 0 0 0 2h3a1 1 0 0 0 0-2z" data-original="#004FAC" class="active-path" style="fill:#004FAC"></path><path d="m46 37h-1a1 1 0 0 0 0 2h1a1 1 0 0 0 0-2z" data-original="#004FAC" class="active-path" style="fill:#004FAC"></path></g></g></g> </svg>