<svg class="nav-header-menu-mobile-guest-icon" width="28" height="35" xmlns="http://www.w3.org/2000/svg"><path d="M27.343 33.706l-1.356.64A13.25 13.25 0 0 0 14 26.75c-5.17 0-9.8 2.988-11.978 7.578l-1.356-.643A14.75 14.75 0 0 1 14 25.25a14.75 14.75 0 0 1 13.343 8.456zM14 21.75C8.063 21.75 3.25 16.937 3.25 11S8.063.25 14 .25 24.75 5.063 24.75 11 19.937 21.75 14 21.75zm0-1.5a9.25 9.25 0 1 0 0-18.5 9.25 9.25 0 0 0 0 18.5zm0-2.5v-1.5a5.25 5.25 0 1 0 0-10.5v-1.5a6.75 6.75 0 0 1 0 13.5z" fill="#BBB" fill-rule="nonzero"></path></svg>